<?xml version="1.0" encoding="iso-8859-1"?>
<!-- Generator: Adobe Illustrator 19.0.0, SVG Export Plug-In . SVG Version: 6.00 Build 0)  -->
<svg version="1.1" id="Capa_1" xmlns="http://www.w3.org/2000/svg" xmlns:xlink="http://www.w3.org/1999/xlink" x="0px" y="0px"
	 viewBox="0 0 512.005 512.005" style="enable-background:new 0 0 512.005 512.005;" xml:space="preserve">
<g>
	<g>
		<rect x="85.336" y="384.005" width="21.333" height="117.333"/>
	</g>
</g>
<g>
	<g>
		<rect x="128.002" y="384.005" width="21.333" height="117.333"/>
	</g>
</g>
<g>
	<g>
		<rect x="85.336" y="234.671" width="21.333" height="64"/>
	</g>
</g>
<g>
	<g>
		<rect x="128.002" y="234.671" width="21.333" height="64"/>
	</g>
</g>
<g>
	<g>
		<rect x="362.669" y="384.005" width="21.333" height="117.333"/>
	</g>
</g>
<g>
	<g>
		<rect x="405.336" y="384.005" width="21.333" height="117.333"/>
	</g>
</g>
<g>
	<g>
		<rect x="170.669" y="234.671" width="32" height="21.333"/>
	</g>
</g>
<g>
	<g>
		<rect x="309.336" y="234.671" width="32" height="21.333"/>
	</g>
</g>
<g>
	<g>
		<path d="M138.669,288.005H96.002c-11.782,0-21.333,9.551-21.333,21.333v64c0,11.782,9.551,21.333,21.333,21.333h42.667
			c11.782,0,21.333-9.551,21.333-21.333v-64C160.002,297.556,150.451,288.005,138.669,288.005z M138.669,373.338H96.002v-64h42.667
			V373.338z"/>
	</g>
</g>
<g>
	<g>
		<rect x="362.669" y="234.671" width="21.333" height="64"/>
	</g>
</g>
<g>
	<g>
		<path d="M309.336,202.671H202.669c-5.891,0-10.667,4.776-10.667,10.667v64c0,5.891,4.776,10.667,10.667,10.667h106.667
			c5.891,0,10.667-4.776,10.667-10.667v-64C320.002,207.447,315.227,202.671,309.336,202.671z M298.669,266.671h-85.333v-42.667
			h85.333V266.671z"/>
	</g>
</g>
<g>
	<g>
		<path d="M480.002,85.338h-448c-17.673,0-32,14.327-32,32v106.667c0,17.673,14.327,32,32,32h32v-21.333h-32
			c-5.891,0-10.667-4.776-10.667-10.667V117.338c0-5.891,4.776-10.667,10.667-10.667h448c5.891,0,10.667,4.776,10.667,10.667
			v106.667c0,5.891-4.776,10.667-10.667,10.667h-32v21.333h32c17.673,0,32-14.327,32-32V117.338
			C512.002,99.665,497.675,85.338,480.002,85.338z"/>
	</g>
</g>
<g>
	<g>
		<path d="M469.336,277.338v202.667c0,5.891-4.776,10.667-10.667,10.667H53.336c-5.891,0-10.667-4.776-10.667-10.667V277.338H21.336
			v202.667c0,17.673,14.327,32,32,32h405.333c17.673,0,32-14.327,32-32V277.338H469.336z"/>
	</g>
</g>
<g>
	<g>
		<path d="M362.669,0.005H149.336c-0.295-0.006-0.589-0.006-0.884,0c-11.538,0.244-20.693,9.795-20.449,21.333v21.333
			c0,5.891,4.776,10.667,10.667,10.667h234.667c5.891,0,10.667-4.776,10.667-10.667V21.338c0.006-0.295,0.006-0.589,0-0.884
			C383.758,8.916,374.207-0.239,362.669,0.005z M362.669,21.338v10.667H149.336V21.338l213.333-0.597
			C362.688,20.939,362.688,21.139,362.669,21.338z"/>
	</g>
</g>
<g>
	<g>
		<rect x="170.669" y="42.671" width="21.333" height="53.333"/>
	</g>
</g>
<g>
	<g>
		<rect x="320.002" y="42.671" width="21.333" height="53.333"/>
	</g>
</g>
<g>
	<g>
		<rect x="405.336" y="234.671" width="21.333" height="64"/>
	</g>
</g>
<g>
	<g>
		<path d="M416.002,288.005h-42.667c-11.782,0-21.333,9.551-21.333,21.333v64c0,11.782,9.551,21.333,21.333,21.333h42.667
			c11.782,0,21.333-9.551,21.333-21.333v-64C437.336,297.556,427.784,288.005,416.002,288.005z M416.002,373.338h-42.667v-64h42.667
			V373.338z"/>
	</g>
</g>
<g>
	<g>
		<path d="M309.336,138.671H202.669c-5.891,0-10.667,4.776-10.667,10.667v21.333h21.333v-10.667h85.333v10.667h21.333v-21.333
			C320.002,143.447,315.227,138.671,309.336,138.671z"/>
	</g>
</g>
<g>
</g>
<g>
</g>
<g>
</g>
<g>
</g>
<g>
</g>
<g>
</g>
<g>
</g>
<g>
</g>
<g>
</g>
<g>
</g>
<g>
</g>
<g>
</g>
<g>
</g>
<g>
</g>
<g>
</g>
</svg>
